<svg width="231" height="109" viewBox="0 0 231 109" fill="none" xmlns="http://www.w3.org/2000/svg">
<path fill-rule="evenodd" clip-rule="evenodd" d="M59.9409 64.1894C59.9409 61.427 62.1795 59.1877 64.9409 59.1877C67.7023 59.1877 69.9409 61.427 69.9409 64.1894C69.9409 66.9517 67.7023 69.1911 64.9409 69.1911C62.1795 69.1911 59.9409 66.9517 59.9409 64.1894ZM79.8569 64.1896C79.8569 61.4272 82.0955 59.1879 84.8569 59.1879C87.6184 59.1879 89.8569 61.4272 89.8569 64.1896C89.8569 66.952 87.6184 69.1913 84.8569 69.1913C82.0955 69.1913 79.8569 66.952 79.8569 64.1896ZM99.8648 64.1894C99.8648 61.4271 102.103 59.1878 104.865 59.1878C107.626 59.1878 109.865 61.4271 109.865 64.1894C109.865 66.9518 107.626 69.1911 104.865 69.1911C102.103 69.1911 99.8648 66.9518 99.8648 64.1894ZM0.000106812 43.8967C0.000106812 41.1343 2.23868 38.895 5.00011 38.895C7.76154 38.895 10.0001 41.1343 10.0001 43.8967C10.0001 46.6591 7.76154 48.8984 5.00011 48.8984C2.23868 48.8984 0.000106812 46.6591 0.000106812 43.8967ZM19.9317 43.8964C19.9317 41.1341 22.1702 38.8947 24.9317 38.8947C27.6931 38.8947 29.9317 41.1341 29.9317 43.8964C29.9317 46.6588 27.6931 48.8981 24.9317 48.8981C22.1702 48.8981 19.9317 46.6588 19.9317 43.8964ZM39.9241 43.8968C39.9241 41.1344 42.1626 38.8951 44.9241 38.8951C47.6855 38.8951 49.9241 41.1344 49.9241 43.8968C49.9241 46.6591 47.6855 48.8984 44.9241 48.8984C42.1626 48.8984 39.9241 46.6591 39.9241 43.8968ZM59.9396 43.8969C59.9396 41.1345 62.1782 38.8952 64.9396 38.8952C67.701 38.8952 69.9396 41.1345 69.9396 43.8969C69.9396 46.6592 67.701 48.8986 64.9396 48.8986C62.1782 48.8986 59.9396 46.6592 59.9396 43.8969ZM79.8557 43.8969C79.8557 41.1345 82.0942 38.8952 84.8557 38.8952C87.6171 38.8952 89.8557 41.1345 89.8557 43.8969C89.8557 46.6592 87.6171 48.8985 84.8557 48.8985C82.0942 48.8985 79.8557 46.6592 79.8557 43.8969ZM99.8653 43.8968C99.8653 41.1344 102.104 38.8951 104.865 38.8951C107.627 38.8951 109.865 41.1344 109.865 43.8968C109.865 46.6591 107.627 48.8984 104.865 48.8984C102.104 48.8984 99.8653 46.6591 99.8653 43.8968ZM1.52588e-05 24.4484C1.52588e-05 21.6861 2.23859 19.4467 5.00002 19.4467C7.76144 19.4467 10 21.6861 10 24.4484C10 27.2108 7.76144 29.4501 5.00002 29.4501C2.23859 29.4501 1.52588e-05 27.2108 1.52588e-05 24.4484ZM19.9336 24.4484C19.9336 21.686 22.1722 19.4467 24.9336 19.4467C27.6951 19.4467 29.9336 21.686 29.9336 24.4484C29.9336 27.2108 27.6951 29.4501 24.9336 29.4501C22.1722 29.4501 19.9336 27.2108 19.9336 24.4484ZM39.9241 24.4483C39.9241 21.686 42.1626 19.4466 44.9241 19.4466C47.6855 19.4466 49.9241 21.686 49.9241 24.4483C49.9241 27.2107 47.6855 29.45 44.9241 29.45C42.1626 29.45 39.9241 27.2107 39.9241 24.4483ZM59.9415 24.4484C59.9415 21.686 62.1801 19.4467 64.9415 19.4467C67.7029 19.4467 69.9415 21.686 69.9415 24.4484C69.9415 27.2107 67.7029 29.4501 64.9415 29.4501C62.1801 29.4501 59.9415 27.2107 59.9415 24.4484ZM79.8556 24.4483C79.8556 21.686 82.0941 19.4467 84.8556 19.4467C87.617 19.4467 89.8556 21.686 89.8556 24.4483C89.8556 27.2107 87.617 29.45 84.8556 29.45C82.0941 29.45 79.8556 27.2107 79.8556 24.4483ZM99.8653 24.4483C99.8653 21.686 102.104 19.4466 104.865 19.4466C107.627 19.4466 109.865 21.686 109.865 24.4483C109.865 27.2107 107.627 29.45 104.865 29.45C102.104 29.45 99.8653 27.2107 99.8653 24.4483ZM-6.10352e-05 5.00189C-6.10352e-05 2.23953 2.23851 0.000196079 4.99994 0.000196079C7.76135 0.000196079 9.99994 2.23953 9.99994 5.00189C9.99994 7.76425 7.76135 10.0036 4.99994 10.0036C2.23851 10.0036 -6.10352e-05 7.76425 -6.10352e-05 5.00189ZM19.9335 5.00185C19.9335 2.23949 22.1721 0.000153678 24.9335 0.000153678C27.695 0.000153678 29.9335 2.23949 29.9335 5.00185C29.9335 7.7642 27.695 10.0035 24.9335 10.0035C22.1721 10.0035 19.9335 7.7642 19.9335 5.00185ZM39.9238 5.00197C39.9238 2.23961 42.1624 0.00027552 44.9238 0.00027552C47.6852 0.00027552 49.9238 2.23961 49.9238 5.00197C49.9238 7.76433 47.6852 10.0037 44.9238 10.0037C42.1624 10.0037 39.9238 7.76433 39.9238 5.00197ZM59.9414 5.00181C59.9414 2.23945 62.18 0.000114651 64.9414 0.000114651C67.7028 0.000114651 69.9414 2.23945 69.9414 5.00181C69.9414 7.76416 67.7028 10.0035 64.9414 10.0035C62.18 10.0035 59.9414 7.76416 59.9414 5.00181ZM79.8574 5.00179C79.8574 2.23943 82.096 9.70463e-05 84.8574 9.70463e-05C87.6189 9.70463e-05 89.8574 2.23943 89.8574 5.00179C89.8574 7.76415 87.6189 10.0035 84.8574 10.0035C82.096 10.0035 79.8574 7.76415 79.8574 5.00179ZM99.8653 5.00189C99.8653 2.23953 102.104 0.000194093 104.865 0.000194093C107.627 0.000194093 109.865 2.23953 109.865 5.00189C109.865 7.76424 107.627 10.0036 104.865 10.0036C102.104 10.0036 99.8653 7.76424 99.8653 5.00189ZM180.216 103.083C180.216 100.321 182.455 98.0812 185.216 98.0812C187.977 98.0812 190.216 100.321 190.216 103.083C190.216 105.845 187.977 108.085 185.216 108.085C182.455 108.085 180.216 105.845 180.216 103.083ZM200.132 103.083C200.132 100.32 202.371 98.0812 205.132 98.0812C207.894 98.0812 210.132 100.32 210.132 103.083C210.132 105.845 207.894 108.085 205.132 108.085C202.371 108.085 200.132 105.845 200.132 103.083ZM220.14 103.083C220.14 100.321 222.378 98.0815 225.14 98.0815C227.901 98.0815 230.14 100.321 230.14 103.083C230.14 105.846 227.901 108.085 225.14 108.085C222.378 108.085 220.14 105.846 220.14 103.083ZM120.274 83.6356C120.274 80.8732 122.513 78.6339 125.274 78.6339C128.036 78.6339 130.274 80.8732 130.274 83.6356C130.274 86.3979 128.036 88.6373 125.274 88.6373C122.513 88.6373 120.274 86.3979 120.274 83.6356ZM140.208 83.6356C140.208 80.8733 142.447 78.6339 145.208 78.6339C147.969 78.6339 150.208 80.8733 150.208 83.6356C150.208 86.398 147.969 88.6373 145.208 88.6373C142.447 88.6373 140.208 86.398 140.208 83.6356ZM160.198 83.6355C160.198 80.8731 162.437 78.6338 165.198 78.6338C167.96 78.6338 170.198 80.8731 170.198 83.6355C170.198 86.3979 167.96 88.6372 165.198 88.6372C162.437 88.6372 160.198 86.3979 160.198 83.6355ZM180.216 83.6356C180.216 80.8732 182.454 78.6339 185.216 78.6339C187.977 78.6339 190.216 80.8732 190.216 83.6356C190.216 86.3979 187.977 88.6373 185.216 88.6373C182.454 88.6373 180.216 86.3979 180.216 83.6356ZM200.132 83.6356C200.132 80.8732 202.37 78.6339 205.132 78.6339C207.893 78.6339 210.132 80.8732 210.132 83.6356C210.132 86.3979 207.893 88.6373 205.132 88.6373C202.37 88.6373 200.132 86.3979 200.132 83.6356ZM220.14 83.6357C220.14 80.8733 222.378 78.634 225.14 78.634C227.901 78.634 230.14 80.8733 230.14 83.6357C230.14 86.398 227.901 88.6374 225.14 88.6374C222.378 88.6374 220.14 86.398 220.14 83.6357ZM120.274 64.1894C120.274 61.427 122.513 59.1877 125.274 59.1877C128.036 59.1877 130.274 61.427 130.274 64.1894C130.274 66.9517 128.036 69.1911 125.274 69.1911C122.513 69.1911 120.274 66.9517 120.274 64.1894ZM140.208 64.1893C140.208 61.4269 142.447 59.1876 145.208 59.1876C147.969 59.1876 150.208 61.4269 150.208 64.1893C150.208 66.9517 147.969 69.191 145.208 69.191C142.447 69.191 140.208 66.9517 140.208 64.1893ZM160.198 64.1894C160.198 61.4271 162.437 59.1877 165.198 59.1877C167.96 59.1877 170.198 61.4271 170.198 64.1894C170.198 66.9518 167.96 69.1911 165.198 69.1911C162.437 69.1911 160.198 66.9518 160.198 64.1894ZM180.216 64.1893C180.216 61.4269 182.454 59.1876 185.216 59.1876C187.977 59.1876 190.216 61.4269 190.216 64.1893C190.216 66.9516 187.977 69.191 185.216 69.191C182.454 69.191 180.216 66.9516 180.216 64.1893ZM200.132 64.1895C200.132 61.4271 202.37 59.1878 205.132 59.1878C207.893 59.1878 210.132 61.4271 210.132 64.1895C210.132 66.9519 207.893 69.1912 205.132 69.1912C202.37 69.1912 200.132 66.9519 200.132 64.1895ZM220.14 64.1894C220.14 61.427 222.378 59.1877 225.14 59.1877C227.901 59.1877 230.14 61.427 230.14 64.1894C230.14 66.9517 227.901 69.191 225.14 69.191C222.378 69.191 220.14 66.9517 220.14 64.1894ZM120.275 43.8966C120.275 41.1342 122.514 38.8949 125.275 38.8949C128.036 38.8949 130.275 41.1342 130.275 43.8966C130.275 46.659 128.036 48.8983 125.275 48.8983C122.514 48.8983 120.275 46.659 120.275 43.8966ZM140.207 43.8963C140.207 41.134 142.445 38.8946 145.207 38.8946C147.968 38.8946 150.207 41.134 150.207 43.8963C150.207 46.6587 147.968 48.898 145.207 48.898C142.445 48.898 140.207 46.6587 140.207 43.8963ZM160.199 43.8967C160.199 41.1343 162.438 38.895 165.199 38.895C167.96 38.895 170.199 41.1343 170.199 43.8967C170.199 46.659 167.96 48.8983 165.199 48.8983C162.438 48.8983 160.199 46.659 160.199 43.8967ZM180.214 43.8968C180.214 41.1344 182.453 38.8951 185.214 38.8951C187.976 38.8951 190.214 41.1344 190.214 43.8968C190.214 46.6591 187.976 48.8985 185.214 48.8985C182.453 48.8985 180.214 46.6591 180.214 43.8968ZM200.131 43.8968C200.131 41.1344 202.369 38.8951 205.131 38.8951C207.892 38.8951 210.131 41.1344 210.131 43.8968C210.131 46.6591 207.892 48.8984 205.131 48.8984C202.369 48.8984 200.131 46.6591 200.131 43.8968ZM220.14 43.8967C220.14 41.1343 222.379 38.895 225.14 38.895C227.902 38.895 230.14 41.1343 230.14 43.8967C230.14 46.659 227.902 48.8983 225.14 48.8983C222.379 48.8983 220.14 46.659 220.14 43.8967ZM120.275 24.4483C120.275 21.686 122.513 19.4467 125.275 19.4467C128.036 19.4467 130.275 21.686 130.275 24.4483C130.275 27.2107 128.036 29.45 125.275 29.45C122.513 29.45 120.275 27.2107 120.275 24.4483ZM140.209 24.4483C140.209 21.6859 142.447 19.4466 145.209 19.4466C147.97 19.4466 150.209 21.6859 150.209 24.4483C150.209 27.2107 147.97 29.45 145.209 29.45C142.447 29.45 140.209 27.2107 140.209 24.4483ZM160.199 24.4482C160.199 21.6859 162.438 19.4465 165.199 19.4465C167.96 19.4465 170.199 21.6859 170.199 24.4482C170.199 27.2106 167.96 29.4499 165.199 29.4499C162.438 29.4499 160.199 27.2106 160.199 24.4482ZM180.216 24.4483C180.216 21.6859 182.455 19.4466 185.216 19.4466C187.978 19.4466 190.216 21.6859 190.216 24.4483C190.216 27.2106 187.978 29.45 185.216 29.45C182.455 29.45 180.216 27.2106 180.216 24.4483ZM200.13 24.4482C200.13 21.6859 202.369 19.4466 205.13 19.4466C207.892 19.4466 210.13 21.6859 210.13 24.4482C210.13 27.2106 207.892 29.4499 205.13 29.4499C202.369 29.4499 200.13 27.2106 200.13 24.4482ZM220.14 24.4482C220.14 21.6859 222.379 19.4465 225.14 19.4465C227.902 19.4465 230.14 21.6859 230.14 24.4482C230.14 27.2106 227.902 29.4499 225.14 29.4499C222.379 29.4499 220.14 27.2106 220.14 24.4482ZM120.275 5.00179C120.275 2.23943 122.513 9.90323e-05 125.275 9.90323e-05C128.036 9.90323e-05 130.275 2.23943 130.275 5.00179C130.275 7.76415 128.036 10.0035 125.275 10.0035C122.513 10.0035 120.275 7.76415 120.275 5.00179ZM140.208 5.00175C140.208 2.23939 142.447 5.66319e-05 145.208 5.66319e-05C147.97 5.66319e-05 150.208 2.23939 150.208 5.00175C150.208 7.76411 147.97 10.0034 145.208 10.0034C142.447 10.0034 140.208 7.76411 140.208 5.00175ZM160.199 5.00187C160.199 2.23951 162.437 0.000178474 165.199 0.000178474C167.96 0.000178474 170.199 2.23951 170.199 5.00187C170.199 7.76423 167.96 10.0036 165.199 10.0036C162.437 10.0036 160.199 7.76423 160.199 5.00187ZM180.216 5.00171C180.216 2.23935 182.455 1.76045e-05 185.216 1.76045e-05C187.978 1.76045e-05 190.216 2.23935 190.216 5.00171C190.216 7.76407 187.978 10.0034 185.216 10.0034C182.455 10.0034 180.216 7.76407 180.216 5.00171ZM200.132 5.00169C200.132 2.23933 202.371 0 205.132 0C207.894 0 210.132 2.23933 210.132 5.00169C210.132 7.76405 207.894 10.0034 205.132 10.0034C202.371 10.0034 200.132 7.76405 200.132 5.00169ZM220.14 5.00179C220.14 2.23943 222.379 9.70463e-05 225.14 9.70463e-05C227.902 9.70463e-05 230.14 2.23943 230.14 5.00179C230.14 7.76415 227.902 10.0035 225.14 10.0035C222.379 10.0035 220.14 7.76415 220.14 5.00179Z" fill="#000E87"/>
</svg>
